<svg xmlns="http://www.w3.org/2000/svg" version="1.1" xmlns:xlink="http://www.w3.org/1999/xlink" xmlns:svgjs="http://svgjs.dev/svgjs" viewBox="0 0 800 800" opacity="0.67"><defs><linearGradient gradientTransform="rotate(270)" x1="50%" y1="0%" x2="50%" y2="100%" id="sssquiggly-grad"><stop stop-color="hsl(37, 99%, 67%)" stop-opacity="1" offset="0%"></stop><stop stop-color="hsl(316, 73%, 52%)" stop-opacity="1" offset="100%"></stop></linearGradient></defs><g stroke-width="1.5" fill="none" stroke-linecap="round" transform="matrix(1,0,0,1,-5,337.52623176574707)"><path d="M10,10C20.73717948717949,10.416666666666666,37.98076923076923,16.791666666666668,61.53846153846154,12C85.09615384615384,7.208333333333333,97.43589743589745,-14.25,123.07692307692308,-13C148.71794871794873,-11.75,158.97435897435898,16.541666666666668,184.6153846153846,18C210.25641025641025,19.458333333333332,220.51282051282053,-6.625,246.15384615384616,-6C271.7948717948718,-5.375,282.05128205128204,20.791666666666668,307.6923076923077,21C333.3333333333333,21.208333333333332,343.5897435897436,-6.25,369.2307692307692,-5C394.87179487179486,-3.75,405.12820512820514,24.708333333333332,430.7692307692308,27C456.4102564102564,29.291666666666668,466.6666666666667,4.333333333333334,492.3076923076923,6C517.948717948718,7.666666666666666,528.2051282051282,34.166666666666664,553.8461538461538,35C579.4871794871794,35.833333333333336,589.7435897435897,10.416666666666666,615.3846153846154,10C641.025641025641,9.583333333333334,651.2820512820513,32.166666666666664,676.9230769230769,33C702.5641025641025,33.833333333333336,712.8205128205128,12.125,738.4615384615385,14C764.1025641025641,15.875,787.1794871794872,36.166666666666664,800,42"></path><path d="M10,10C20.73717948717949,10.416666666666666,37.98076923076923,16.791666666666668,61.53846153846154,12C85.09615384615384,7.208333333333333,97.43589743589745,-14.25,123.07692307692308,-13C148.71794871794873,-11.75,158.97435897435898,16.541666666666668,184.6153846153846,18C210.25641025641025,19.458333333333332,220.51282051282053,-6.625,246.15384615384616,-6C271.7948717948718,-5.375,282.05128205128204,20.791666666666668,307.6923076923077,21C333.3333333333333,21.208333333333332,343.5897435897436,-6.25,369.2307692307692,-5C394.87179487179486,-3.75,405.12820512820514,24.708333333333332,430.7692307692308,27C456.4102564102564,29.291666666666668,466.6666666666667,4.333333333333334,492.3076923076923,6C517.948717948718,7.666666666666666,528.2051282051282,34.166666666666664,553.8461538461538,35C579.4871794871794,35.833333333333336,589.7435897435897,10.416666666666666,615.3846153846154,10C641.025641025641,9.583333333333334,651.2820512820513,32.166666666666664,676.9230769230769,33C702.5641025641025,33.833333333333336,712.8205128205128,12.125,738.4615384615385,14C764.1025641025641,15.875,787.1794871794872,36.166666666666664,800,42" transform="matrix(1,0,0,1,0,96)"></path><path d="M10,10C20.73717948717949,10.416666666666666,37.98076923076923,16.791666666666668,61.53846153846154,12C85.09615384615384,7.208333333333333,97.43589743589745,-14.25,123.07692307692308,-13C148.71794871794873,-11.75,158.97435897435898,16.541666666666668,184.6153846153846,18C210.25641025641025,19.458333333333332,220.51282051282053,-6.625,246.15384615384616,-6C271.7948717948718,-5.375,282.05128205128204,20.791666666666668,307.6923076923077,21C333.3333333333333,21.208333333333332,343.5897435897436,-6.25,369.2307692307692,-5C394.87179487179486,-3.75,405.12820512820514,24.708333333333332,430.7692307692308,27C456.4102564102564,29.291666666666668,466.6666666666667,4.333333333333334,492.3076923076923,6C517.948717948718,7.666666666666666,528.2051282051282,34.166666666666664,553.8461538461538,35C579.4871794871794,35.833333333333336,589.7435897435897,10.416666666666666,615.3846153846154,10C641.025641025641,9.583333333333334,651.2820512820513,32.166666666666664,676.9230769230769,33C702.5641025641025,33.833333333333336,712.8205128205128,12.125,738.4615384615385,14C764.1025641025641,15.875,787.1794871794872,36.166666666666664,800,42" transform="matrix(1,0,0,1,0,80)"></path><path d="M10,10C20.73717948717949,10.416666666666666,37.98076923076923,16.791666666666668,61.53846153846154,12C85.09615384615384,7.208333333333333,97.43589743589745,-14.25,123.07692307692308,-13C148.71794871794873,-11.75,158.97435897435898,16.541666666666668,184.6153846153846,18C210.25641025641025,19.458333333333332,220.51282051282053,-6.625,246.15384615384616,-6C271.7948717948718,-5.375,282.05128205128204,20.791666666666668,307.6923076923077,21C333.3333333333333,21.208333333333332,343.5897435897436,-6.25,369.2307692307692,-5C394.87179487179486,-3.75,405.12820512820514,24.708333333333332,430.7692307692308,27C456.4102564102564,29.291666666666668,466.6666666666667,4.333333333333334,492.3076923076923,6C517.948717948718,7.666666666666666,528.2051282051282,34.166666666666664,553.8461538461538,35C579.4871794871794,35.833333333333336,589.7435897435897,10.416666666666666,615.3846153846154,10C641.025641025641,9.583333333333334,651.2820512820513,32.166666666666664,676.9230769230769,33C702.5641025641025,33.833333333333336,712.8205128205128,12.125,738.4615384615385,14C764.1025641025641,15.875,787.1794871794872,36.166666666666664,800,42" transform="matrix(1,0,0,1,0,64)"></path></g></svg>
