<svg xmlns="http://www.w3.org/2000/svg" version="1.1" xmlns:xlink="http://www.w3.org/1999/xlink" xmlns:svgjs="http://svgjs.dev/svgjs" viewBox="0 0 2400 800" opacity="1"><defs><linearGradient x1="50%" y1="0%" x2="50%" y2="100%" id="sssurf-grad"><stop stop-color="hsla(184, 83%, 41%, 1.00)" stop-opacity="1" offset="0%"></stop><stop stop-color="hsla(332, 97%, 46%, 1.00)" stop-opacity="1" offset="100%"></stop></linearGradient></defs><g fill="url(#sssurf-grad)" transform="matrix(1,0,0,1,9.9305419921875,224.4138412475586)"><path d="M-10,10C27.797619047619044,10.833333333333334,97.91666666666666,18.583333333333332,171.42857142857142,14C244.94047619047618,9.416666666666668,271.42857142857144,-12.833333333333334,342.85714285714283,-12C414.2857142857142,-11.166666666666666,442.8571428571428,16.958333333333332,514.2857142857142,18C585.7142857142857,19.041666666666668,614.2857142857142,-8.458333333333334,685.7142857142857,-7C757.1428571428571,-5.541666666666666,785.7142857142857,25.208333333333332,857.1428571428571,25C928.5714285714286,24.791666666666668,957.142857142857,-8.833333333333334,1028.5714285714284,-8C1099.9999999999998,-7.166666666666667,1128.5714285714287,26.708333333333332,1200,29C1271.4285714285713,31.291666666666668,1300,0.9166666666666665,1371.4285714285713,3C1442.8571428571427,5.083333333333334,1471.4285714285713,38.166666666666664,1542.8571428571427,39C1614.285714285714,39.833333333333336,1642.857142857143,6.791666666666667,1714.2857142857142,7C1785.7142857142856,7.208333333333333,1814.2857142857142,40.416666666666664,1885.7142857142856,40C1957.1428571428569,39.583333333333336,1985.7142857142856,5.208333333333333,2057.142857142857,5C2128.5714285714284,4.791666666666667,2157.142857142857,36.916666666666664,2228.5714285714284,39C2300,41.083333333333336,2312.2023809523807,-60.20833333333333,2400,15C2487.7976190476193,90.20833333333333,3254.1666666666665,215.625,2650,400C2045.8333333333335,584.375,156.25,795.8333333333334,-500,900" transform="matrix(1,0,0,1,0,33)" opacity="0.05"></path><path d="M-10,10C27.797619047619044,10.833333333333334,97.91666666666666,18.583333333333332,171.42857142857142,14C244.94047619047618,9.416666666666668,271.42857142857144,-12.833333333333334,342.85714285714283,-12C414.2857142857142,-11.166666666666666,442.8571428571428,16.958333333333332,514.2857142857142,18C585.7142857142857,19.041666666666668,614.2857142857142,-8.458333333333334,685.7142857142857,-7C757.1428571428571,-5.541666666666666,785.7142857142857,25.208333333333332,857.1428571428571,25C928.5714285714286,24.791666666666668,957.142857142857,-8.833333333333334,1028.5714285714284,-8C1099.9999999999998,-7.166666666666667,1128.5714285714287,26.708333333333332,1200,29C1271.4285714285713,31.291666666666668,1300,0.9166666666666665,1371.4285714285713,3C1442.8571428571427,5.083333333333334,1471.4285714285713,38.166666666666664,1542.8571428571427,39C1614.285714285714,39.833333333333336,1642.857142857143,6.791666666666667,1714.2857142857142,7C1785.7142857142856,7.208333333333333,1814.2857142857142,40.416666666666664,1885.7142857142856,40C1957.1428571428569,39.583333333333336,1985.7142857142856,5.208333333333333,2057.142857142857,5C2128.5714285714284,4.791666666666667,2157.142857142857,36.916666666666664,2228.5714285714284,39C2300,41.083333333333336,2312.2023809523807,-60.20833333333333,2400,15C2487.7976190476193,90.20833333333333,3254.1666666666665,215.625,2650,400C2045.8333333333335,584.375,156.25,795.8333333333334,-500,900" transform="matrix(1,0,0,1,0,66)" opacity="0.21"></path><path d="M-10,10C27.797619047619044,10.833333333333334,97.91666666666666,18.583333333333332,171.42857142857142,14C244.94047619047618,9.416666666666668,271.42857142857144,-12.833333333333334,342.85714285714283,-12C414.2857142857142,-11.166666666666666,442.8571428571428,16.958333333333332,514.2857142857142,18C585.7142857142857,19.041666666666668,614.2857142857142,-8.458333333333334,685.7142857142857,-7C757.1428571428571,-5.541666666666666,785.7142857142857,25.208333333333332,857.1428571428571,25C928.5714285714286,24.791666666666668,957.142857142857,-8.833333333333334,1028.5714285714284,-8C1099.9999999999998,-7.166666666666667,1128.5714285714287,26.708333333333332,1200,29C1271.4285714285713,31.291666666666668,1300,0.9166666666666665,1371.4285714285713,3C1442.8571428571427,5.083333333333334,1471.4285714285713,38.166666666666664,1542.8571428571427,39C1614.285714285714,39.833333333333336,1642.857142857143,6.791666666666667,1714.2857142857142,7C1785.7142857142856,7.208333333333333,1814.2857142857142,40.416666666666664,1885.7142857142856,40C1957.1428571428569,39.583333333333336,1985.7142857142856,5.208333333333333,2057.142857142857,5C2128.5714285714284,4.791666666666667,2157.142857142857,36.916666666666664,2228.5714285714284,39C2300,41.083333333333336,2312.2023809523807,-60.20833333333333,2400,15C2487.7976190476193,90.20833333333333,3254.1666666666665,215.625,2650,400C2045.8333333333335,584.375,156.25,795.8333333333334,-500,900" transform="matrix(1,0,0,1,0,99)" opacity="0.37"></path><path d="M-10,10C27.797619047619044,10.833333333333334,97.91666666666666,18.583333333333332,171.42857142857142,14C244.94047619047618,9.416666666666668,271.42857142857144,-12.833333333333334,342.85714285714283,-12C414.2857142857142,-11.166666666666666,442.8571428571428,16.958333333333332,514.2857142857142,18C585.7142857142857,19.041666666666668,614.2857142857142,-8.458333333333334,685.7142857142857,-7C757.1428571428571,-5.541666666666666,785.7142857142857,25.208333333333332,857.1428571428571,25C928.5714285714286,24.791666666666668,957.142857142857,-8.833333333333334,1028.5714285714284,-8C1099.9999999999998,-7.166666666666667,1128.5714285714287,26.708333333333332,1200,29C1271.4285714285713,31.291666666666668,1300,0.9166666666666665,1371.4285714285713,3C1442.8571428571427,5.083333333333334,1471.4285714285713,38.166666666666664,1542.8571428571427,39C1614.285714285714,39.833333333333336,1642.857142857143,6.791666666666667,1714.2857142857142,7C1785.7142857142856,7.208333333333333,1814.2857142857142,40.416666666666664,1885.7142857142856,40C1957.1428571428569,39.583333333333336,1985.7142857142856,5.208333333333333,2057.142857142857,5C2128.5714285714284,4.791666666666667,2157.142857142857,36.916666666666664,2228.5714285714284,39C2300,41.083333333333336,2312.2023809523807,-60.20833333333333,2400,15C2487.7976190476193,90.20833333333333,3254.1666666666665,215.625,2650,400C2045.8333333333335,584.375,156.25,795.8333333333334,-500,900" transform="matrix(1,0,0,1,0,132)" opacity="0.53"></path><path d="M-10,10C27.797619047619044,10.833333333333334,97.91666666666666,18.583333333333332,171.42857142857142,14C244.94047619047618,9.416666666666668,271.42857142857144,-12.833333333333334,342.85714285714283,-12C414.2857142857142,-11.166666666666666,442.8571428571428,16.958333333333332,514.2857142857142,18C585.7142857142857,19.041666666666668,614.2857142857142,-8.458333333333334,685.7142857142857,-7C757.1428571428571,-5.541666666666666,785.7142857142857,25.208333333333332,857.1428571428571,25C928.5714285714286,24.791666666666668,957.142857142857,-8.833333333333334,1028.5714285714284,-8C1099.9999999999998,-7.166666666666667,1128.5714285714287,26.708333333333332,1200,29C1271.4285714285713,31.291666666666668,1300,0.9166666666666665,1371.4285714285713,3C1442.8571428571427,5.083333333333334,1471.4285714285713,38.166666666666664,1542.8571428571427,39C1614.285714285714,39.833333333333336,1642.857142857143,6.791666666666667,1714.2857142857142,7C1785.7142857142856,7.208333333333333,1814.2857142857142,40.416666666666664,1885.7142857142856,40C1957.1428571428569,39.583333333333336,1985.7142857142856,5.208333333333333,2057.142857142857,5C2128.5714285714284,4.791666666666667,2157.142857142857,36.916666666666664,2228.5714285714284,39C2300,41.083333333333336,2312.2023809523807,-60.20833333333333,2400,15C2487.7976190476193,90.20833333333333,3254.1666666666665,215.625,2650,400C2045.8333333333335,584.375,156.25,795.8333333333334,-500,900" transform="matrix(1,0,0,1,0,165)" opacity="0.68"></path><path d="M-10,10C27.797619047619044,10.833333333333334,97.91666666666666,18.583333333333332,171.42857142857142,14C244.94047619047618,9.416666666666668,271.42857142857144,-12.833333333333334,342.85714285714283,-12C414.2857142857142,-11.166666666666666,442.8571428571428,16.958333333333332,514.2857142857142,18C585.7142857142857,19.041666666666668,614.2857142857142,-8.458333333333334,685.7142857142857,-7C757.1428571428571,-5.541666666666666,785.7142857142857,25.208333333333332,857.1428571428571,25C928.5714285714286,24.791666666666668,957.142857142857,-8.833333333333334,1028.5714285714284,-8C1099.9999999999998,-7.166666666666667,1128.5714285714287,26.708333333333332,1200,29C1271.4285714285713,31.291666666666668,1300,0.9166666666666665,1371.4285714285713,3C1442.8571428571427,5.083333333333334,1471.4285714285713,38.166666666666664,1542.8571428571427,39C1614.285714285714,39.833333333333336,1642.857142857143,6.791666666666667,1714.2857142857142,7C1785.7142857142856,7.208333333333333,1814.2857142857142,40.416666666666664,1885.7142857142856,40C1957.1428571428569,39.583333333333336,1985.7142857142856,5.208333333333333,2057.142857142857,5C2128.5714285714284,4.791666666666667,2157.142857142857,36.916666666666664,2228.5714285714284,39C2300,41.083333333333336,2312.2023809523807,-60.20833333333333,2400,15C2487.7976190476193,90.20833333333333,3254.1666666666665,215.625,2650,400C2045.8333333333335,584.375,156.25,795.8333333333334,-500,900" transform="matrix(1,0,0,1,0,198)" opacity="0.84"></path><path d="M-10,10C27.797619047619044,10.833333333333334,97.91666666666666,18.583333333333332,171.42857142857142,14C244.94047619047618,9.416666666666668,271.42857142857144,-12.833333333333334,342.85714285714283,-12C414.2857142857142,-11.166666666666666,442.8571428571428,16.958333333333332,514.2857142857142,18C585.7142857142857,19.041666666666668,614.2857142857142,-8.458333333333334,685.7142857142857,-7C757.1428571428571,-5.541666666666666,785.7142857142857,25.208333333333332,857.1428571428571,25C928.5714285714286,24.791666666666668,957.142857142857,-8.833333333333334,1028.5714285714284,-8C1099.9999999999998,-7.166666666666667,1128.5714285714287,26.708333333333332,1200,29C1271.4285714285713,31.291666666666668,1300,0.9166666666666665,1371.4285714285713,3C1442.8571428571427,5.083333333333334,1471.4285714285713,38.166666666666664,1542.8571428571427,39C1614.285714285714,39.833333333333336,1642.857142857143,6.791666666666667,1714.2857142857142,7C1785.7142857142856,7.208333333333333,1814.2857142857142,40.416666666666664,1885.7142857142856,40C1957.1428571428569,39.583333333333336,1985.7142857142856,5.208333333333333,2057.142857142857,5C2128.5714285714284,4.791666666666667,2157.142857142857,36.916666666666664,2228.5714285714284,39C2300,41.083333333333336,2312.2023809523807,-60.20833333333333,2400,15C2487.7976190476193,90.20833333333333,3254.1666666666665,215.625,2650,400C2045.8333333333335,584.375,156.25,795.8333333333334,-500,900" transform="matrix(1,0,0,1,0,231)" opacity="1.00"></path></g></svg>
