<svg xmlns="http://www.w3.org/2000/svg" version="1.1" xmlns:xlink="http://www.w3.org/1999/xlink" xmlns:svgjs="http://svgjs.dev/svgjs" viewBox="0 0 800 800"><defs><linearGradient x1="50%" y1="0%" x2="50%" y2="100%" id="ffflurry-grad" gradientTransform="rotate(270)"><stop stop-color="hsl(0, 0%, 0%)" stop-opacity="1" offset="0%"></stop><stop stop-color="hsl(184, 77%, 42%)" stop-opacity="1" offset="45%"></stop><stop stop-color="hsl(332, 91%, 48%)" stop-opacity="1" offset="100%"></stop></linearGradient></defs><rect width="100%" height="100%" fill="hsl(0, 0%, 0%)"></rect><g fill="url(#ffflurry-grad)"><rect width="106" height="3" x="567" y="445.5" rx="1.5" transform="rotate(10, 620, 447)" opacity="0.59"></rect><rect width="75" height="3" x="40.5" y="557.5" rx="1.5" transform="rotate(10, 78, 559)" opacity="0.39"></rect><rect width="77" height="3" x="420.5" y="423.5" rx="1.5" transform="rotate(10, 459, 425)" opacity="0.58"></rect><rect width="174" height="3" x="151" y="505.5" rx="1.5" transform="rotate(10, 238, 507)" opacity="0.40"></rect><rect width="189" height="3" x="-38.5" y="157.5" rx="1.5" transform="rotate(10, 56, 159)" opacity="0.36"></rect><rect width="250" height="3" x="399" y="42.5" rx="1.5" transform="rotate(10, 524, 44)" opacity="0.37"></rect><rect width="133" height="3" x="100.5" y="617.5" rx="1.5" transform="rotate(10, 167, 619)" opacity="0.07"></rect><rect width="96" height="3" x="134" y="448.5" rx="1.5" transform="rotate(10, 182, 450)" opacity="0.17"></rect><rect width="117" height="3" x="259.5" y="147.5" rx="1.5" transform="rotate(10, 318, 149)" opacity="0.80"></rect><rect width="193" height="3" x="358.5" y="59.5" rx="1.5" transform="rotate(10, 455, 61)" opacity="0.10"></rect><rect width="212" height="3" x="407" y="372.5" rx="1.5" transform="rotate(10, 513, 374)" opacity="0.45"></rect><rect width="35" height="3" x="370.5" y="306.5" rx="1.5" transform="rotate(10, 388, 308)" opacity="0.13"></rect><rect width="96" height="3" x="326" y="97.5" rx="1.5" transform="rotate(10, 374, 99)" opacity="0.27"></rect><rect width="162" height="3" x="411" y="767.5" rx="1.5" transform="rotate(10, 492, 769)" opacity="0.89"></rect><rect width="70" height="3" x="386" y="363.5" rx="1.5" transform="rotate(10, 421, 365)" opacity="0.11"></rect><rect width="170" height="3" x="689" y="498.5" rx="1.5" transform="rotate(10, 774, 500)" opacity="0.48"></rect><rect width="223" height="3" x="400.5" y="496.5" rx="1.5" transform="rotate(10, 512, 498)" opacity="0.15"></rect><rect width="39" height="3" x="685.5" y="647.5" rx="1.5" transform="rotate(10, 705, 649)" opacity="0.65"></rect><rect width="216" height="3" x="69" y="193.5" rx="1.5" transform="rotate(10, 177, 195)" opacity="0.16"></rect><rect width="243" height="3" x="-79.5" y="390.5" rx="1.5" transform="rotate(10, 42, 392)" opacity="0.61"></rect><rect width="230" height="3" x="170" y="682.5" rx="1.5" transform="rotate(10, 285, 684)" opacity="0.41"></rect><rect width="110" height="3" x="617" y="770.5" rx="1.5" transform="rotate(10, 672, 772)" opacity="0.20"></rect><rect width="40" height="3" x="138" y="698.5" rx="1.5" transform="rotate(10, 158, 700)" opacity="0.84"></rect><rect width="50" height="3" x="301" y="587.5" rx="1.5" transform="rotate(10, 326, 589)" opacity="0.98"></rect><rect width="107" height="3" x="312.5" y="24.5" rx="1.5" transform="rotate(10, 366, 26)" opacity="0.17"></rect><rect width="213" height="3" x="518.5" y="646.5" rx="1.5" transform="rotate(10, 625, 648)" opacity="0.42"></rect><rect width="82" height="3" x="405" y="502.5" rx="1.5" transform="rotate(10, 446, 504)" opacity="0.89"></rect><rect width="182" height="3" x="513" y="299.5" rx="1.5" transform="rotate(10, 604, 301)" opacity="0.81"></rect><rect width="128" height="3" x="149" y="661.5" rx="1.5" transform="rotate(10, 213, 663)" opacity="0.49"></rect><rect width="87" height="3" x="712.5" y="772.5" rx="1.5" transform="rotate(10, 756, 774)" opacity="0.11"></rect><rect width="204" height="3" x="598" y="712.5" rx="1.5" transform="rotate(10, 700, 714)" opacity="0.90"></rect><rect width="95" height="3" x="265.5" y="37.5" rx="1.5" transform="rotate(10, 313, 39)" opacity="0.55"></rect><rect width="47" height="3" x="548.5" y="665.5" rx="1.5" transform="rotate(10, 572, 667)" opacity="0.40"></rect><rect width="184" height="3" x="439" y="708.5" rx="1.5" transform="rotate(10, 531, 710)" opacity="0.73"></rect><rect width="32" height="3" x="757" y="720.5" rx="1.5" transform="rotate(10, 773, 722)" opacity="0.68"></rect><rect width="98" height="3" x="553" y="567.5" rx="1.5" transform="rotate(10, 602, 569)" opacity="0.88"></rect><rect width="153" height="3" x="323.5" y="483.5" rx="1.5" transform="rotate(10, 400, 485)" opacity="0.67"></rect><rect width="77" height="3" x="196.5" y="344.5" rx="1.5" transform="rotate(10, 235, 346)" opacity="0.63"></rect><rect width="236" height="3" x="121" y="139.5" rx="1.5" transform="rotate(10, 239, 141)" opacity="0.11"></rect><rect width="171" height="3" x="675.5" y="212.5" rx="1.5" transform="rotate(10, 761, 214)" opacity="0.89"></rect><rect width="64" height="3" x="-12" y="62.5" rx="1.5" transform="rotate(10, 20, 64)" opacity="0.11"></rect><rect width="174" height="3" x="25" y="772.5" rx="1.5" transform="rotate(10, 112, 774)" opacity="0.66"></rect><rect width="47" height="3" x="82.5" y="660.5" rx="1.5" transform="rotate(10, 106, 662)" opacity="0.61"></rect><rect width="66" height="3" x="473" y="649.5" rx="1.5" transform="rotate(10, 506, 651)" opacity="0.83"></rect><rect width="40" height="3" x="407" y="628.5" rx="1.5" transform="rotate(10, 427, 630)" opacity="0.71"></rect><rect width="126" height="3" x="45" y="467.5" rx="1.5" transform="rotate(10, 108, 469)" opacity="0.41"></rect><rect width="133" height="3" x="-40.5" y="527.5" rx="1.5" transform="rotate(10, 26, 529)" opacity="0.95"></rect><rect width="92" height="3" x="648" y="242.5" rx="1.5" transform="rotate(10, 694, 244)" opacity="0.43"></rect><rect width="45" height="3" x="84.5" y="18.5" rx="1.5" transform="rotate(10, 107, 20)" opacity="0.37"></rect><rect width="90" height="3" x="620" y="508.5" rx="1.5" transform="rotate(10, 665, 510)" opacity="0.27"></rect><rect width="173" height="3" x="-62.5" y="584.5" rx="1.5" transform="rotate(10, 24, 586)" opacity="0.48"></rect><rect width="89" height="3" x="431.5" y="610.5" rx="1.5" transform="rotate(10, 476, 612)" opacity="0.99"></rect><rect width="231" height="3" x="149.5" y="754.5" rx="1.5" transform="rotate(10, 265, 756)" opacity="0.23"></rect><rect width="119" height="3" x="240.5" y="530.5" rx="1.5" transform="rotate(10, 300, 532)" opacity="0.26"></rect><rect width="174" height="3" x="506" y="379.5" rx="1.5" transform="rotate(10, 593, 381)" opacity="0.10"></rect><rect width="136" height="3" x="514" y="504.5" rx="1.5" transform="rotate(10, 582, 506)" opacity="0.84"></rect><rect width="126" height="3" x="-22" y="776.5" rx="1.5" transform="rotate(10, 41, 778)" opacity="0.35"></rect><rect width="100" height="3" x="438" y="142.5" rx="1.5" transform="rotate(10, 488, 144)" opacity="0.38"></rect><rect width="160" height="3" x="203" y="457.5" rx="1.5" transform="rotate(10, 283, 459)" opacity="0.40"></rect><rect width="53" height="3" x="743.5" y="98.5" rx="1.5" transform="rotate(10, 770, 100)" opacity="0.71"></rect><rect width="161" height="3" x="180.5" y="66.5" rx="1.5" transform="rotate(10, 261, 68)" opacity="0.43"></rect><rect width="133" height="3" x="21.5" y="228.5" rx="1.5" transform="rotate(10, 88, 230)" opacity="0.53"></rect><rect width="90" height="3" x="624" y="591.5" rx="1.5" transform="rotate(10, 669, 593)" opacity="0.96"></rect><rect width="198" height="3" x="102" y="32.5" rx="1.5" transform="rotate(10, 201, 34)" opacity="0.32"></rect><rect width="73" height="3" x="95.5" y="560.5" rx="1.5" transform="rotate(10, 132, 562)" opacity="0.41"></rect><rect width="80" height="3" x="432" y="233.5" rx="1.5" transform="rotate(10, 472, 235)" opacity="0.36"></rect><rect width="130" height="3" x="431" y="309.5" rx="1.5" transform="rotate(10, 496, 311)" opacity="0.61"></rect><rect width="98" height="3" x="632" y="146.5" rx="1.5" transform="rotate(10, 681, 148)" opacity="0.18"></rect><rect width="79" height="3" x="87.5" y="359.5" rx="1.5" transform="rotate(10, 127, 361)" opacity="0.11"></rect><rect width="168" height="3" x="647" y="462.5" rx="1.5" transform="rotate(10, 731, 464)" opacity="0.55"></rect><rect width="165" height="3" x="575.5" y="323.5" rx="1.5" transform="rotate(10, 658, 325)" opacity="0.47"></rect><rect width="38" height="3" x="500" y="203.5" rx="1.5" transform="rotate(10, 519, 205)" opacity="0.28"></rect><rect width="91" height="3" x="136.5" y="761.5" rx="1.5" transform="rotate(10, 182, 763)" opacity="0.59"></rect><rect width="154" height="3" x="1" y="618.5" rx="1.5" transform="rotate(10, 78, 620)" opacity="0.54"></rect><rect width="105" height="3" x="107.5" y="117.5" rx="1.5" transform="rotate(10, 160, 119)" opacity="0.90"></rect><rect width="52" height="3" x="40" y="63.5" rx="1.5" transform="rotate(10, 66, 65)" opacity="0.67"></rect><rect width="125" height="3" x="634.5" y="79.5" rx="1.5" transform="rotate(10, 697, 81)" opacity="0.30"></rect><rect width="153" height="3" x="198.5" y="214.5" rx="1.5" transform="rotate(10, 275, 216)" opacity="0.42"></rect><rect width="69" height="3" x="55.5" y="721.5" rx="1.5" transform="rotate(10, 90, 723)" opacity="0.31"></rect><rect width="38" height="3" x="652" y="381.5" rx="1.5" transform="rotate(10, 671, 383)" opacity="0.84"></rect><rect width="189" height="3" x="369.5" y="557.5" rx="1.5" transform="rotate(10, 464, 559)" opacity="0.82"></rect><rect width="170" height="3" x="174" y="609.5" rx="1.5" transform="rotate(10, 259, 611)" opacity="0.81"></rect><rect width="30" height="3" x="677" y="427.5" rx="1.5" transform="rotate(10, 692, 429)" opacity="0.60"></rect><rect width="43" height="3" x="395.5" y="24.5" rx="1.5" transform="rotate(10, 417, 26)" opacity="0.23"></rect><rect width="106" height="3" x="331" y="203.5" rx="1.5" transform="rotate(10, 384, 205)" opacity="0.56"></rect><rect width="196" height="3" x="669" y="395.5" rx="1.5" transform="rotate(10, 767, 397)" opacity="0.76"></rect><rect width="122" height="3" x="481" y="431.5" rx="1.5" transform="rotate(10, 542, 433)" opacity="0.34"></rect><rect width="217" height="3" x="427.5" y="584.5" rx="1.5" transform="rotate(10, 536, 586)" opacity="0.65"></rect><rect width="183" height="3" x="159.5" y="276.5" rx="1.5" transform="rotate(10, 251, 278)" opacity="0.12"></rect><rect width="202" height="3" x="624" y="548.5" rx="1.5" transform="rotate(10, 725, 550)" opacity="0.38"></rect><rect width="75" height="3" x="343.5" y="661.5" rx="1.5" transform="rotate(10, 381, 663)" opacity="0.51"></rect><rect width="108" height="3" x="378" y="146.5" rx="1.5" transform="rotate(10, 432, 148)" opacity="0.38"></rect><rect width="120" height="3" x="-23" y="474.5" rx="1.5" transform="rotate(10, 37, 476)" opacity="0.99"></rect><rect width="163" height="3" x="672.5" y="160.5" rx="1.5" transform="rotate(10, 754, 162)" opacity="0.13"></rect><rect width="81" height="3" x="562.5" y="745.5" rx="1.5" transform="rotate(10, 603, 747)" opacity="0.44"></rect><rect width="205" height="3" x="512.5" y="155.5" rx="1.5" transform="rotate(10, 615, 157)" opacity="0.81"></rect><rect width="142" height="3" x="698" y="661.5" rx="1.5" transform="rotate(10, 769, 663)" opacity="0.18"></rect><rect width="128" height="3" x="487" y="322.5" rx="1.5" transform="rotate(10, 551, 324)" opacity="0.51"></rect><rect width="148" height="3" x="273" y="510.5" rx="1.5" transform="rotate(10, 347, 512)" opacity="0.36"></rect><rect width="137" height="3" x="265.5" y="275.5" rx="1.5" transform="rotate(10, 334, 277)" opacity="0.15"></rect><rect width="175" height="3" x="682.5" y="273.5" rx="1.5" transform="rotate(10, 770, 275)" opacity="0.72"></rect><rect width="322" height="3" x="211" y="750.5" rx="1.5" transform="rotate(10, 372, 752)" opacity="0.96"></rect><rect width="49" height="3" x="158.5" y="538.5" rx="1.5" transform="rotate(10, 183, 540)" opacity="0.51"></rect><rect width="129" height="3" x="260.5" y="368.5" rx="1.5" transform="rotate(10, 325, 370)" opacity="0.16"></rect><rect width="144" height="3" x="379" y="700.5" rx="1.5" transform="rotate(10, 451, 702)" opacity="0.73"></rect><rect width="157" height="3" x="479.5" y="245.5" rx="1.5" transform="rotate(10, 558, 247)" opacity="0.46"></rect><rect width="132" height="3" x="63" y="71.5" rx="1.5" transform="rotate(10, 129, 73)" opacity="0.82"></rect><rect width="27" height="3" x="319.5" y="644.5" rx="1.5" transform="rotate(10, 333, 646)" opacity="0.68"></rect><rect width="109" height="3" x="684.5" y="326.5" rx="1.5" transform="rotate(10, 739, 328)" opacity="0.83"></rect><rect width="170" height="3" x="305" y="568.5" rx="1.5" transform="rotate(10, 390, 570)" opacity="0.12"></rect><rect width="121" height="3" x="378.5" y="277.5" rx="1.5" transform="rotate(10, 439, 279)" opacity="0.85"></rect><rect width="137" height="3" x="699.5" y="592.5" rx="1.5" transform="rotate(10, 768, 594)" opacity="0.70"></rect><rect width="102" height="3" x="591" y="26.5" rx="1.5" transform="rotate(10, 642, 28)" opacity="0.20"></rect><rect width="232" height="3" x="433" y="140.5" rx="1.5" transform="rotate(10, 549, 142)" opacity="0.30"></rect><rect width="110" height="3" x="112" y="284.5" rx="1.5" transform="rotate(10, 167, 286)" opacity="0.78"></rect><rect width="77" height="3" x="203.5" y="404.5" rx="1.5" transform="rotate(10, 242, 406)" opacity="0.58"></rect><rect width="38" height="3" x="577" y="75.5" rx="1.5" transform="rotate(10, 596, 77)" opacity="0.77"></rect><rect width="92" height="3" x="-21" y="730.5" rx="1.5" transform="rotate(10, 25, 732)" opacity="0.36"></rect><rect width="159" height="3" x="671.5" y="28.5" rx="1.5" transform="rotate(10, 751, 30)" opacity="0.94"></rect><rect width="38" height="3" x="343" y="432.5" rx="1.5" transform="rotate(10, 362, 434)" opacity="0.48"></rect><rect width="47" height="3" x="15.5" y="288.5" rx="1.5" transform="rotate(10, 39, 290)" opacity="0.07"></rect><rect width="209" height="3" x="522.5" y="226.5" rx="1.5" transform="rotate(10, 627, 228)" opacity="0.95"></rect><rect width="172" height="3" x="-54" y="664.5" rx="1.5" transform="rotate(10, 32, 666)" opacity="0.35"></rect><rect width="40" height="3" x="228" y="561.5" rx="1.5" transform="rotate(10, 248, 563)" opacity="0.45"></rect></g></svg>
