<svg xmlns="http://www.w3.org/2000/svg" version="1.1" xmlns:xlink="http://www.w3.org/1999/xlink" xmlns:svgjs="http://svgjs.dev/svgjs" viewBox="0 0 800 800"><defs><linearGradient x1="50%" y1="0%" x2="50%" y2="100%" id="ffflurry-grad" gradientTransform="rotate(270)"><stop stop-color="hsl(0, 0%, 0%)" stop-opacity="1" offset="0%"></stop><stop stop-color="hsl(184, 77%, 42%)" stop-opacity="1" offset="45%"></stop><stop stop-color="hsl(332, 91%, 48%)" stop-opacity="1" offset="100%"></stop></linearGradient></defs><rect width="100%" height="100%" fill="hsl(0, 0%, 0%)"></rect><g fill="url(#ffflurry-grad)"><rect width="35" height="11" x="576.5" y="124.5" rx="5.5" transform="rotate(10, 594, 130)" opacity="0.36"></rect><rect width="112" height="11" x="546" y="628.5" rx="5.5" transform="rotate(10, 602, 634)" opacity="1.00"></rect><rect width="65" height="11" x="417.5" y="447.5" rx="5.5" transform="rotate(10, 450, 453)" opacity="0.57"></rect><rect width="88" height="11" x="26" y="14.5" rx="5.5" transform="rotate(10, 70, 20)" opacity="0.88"></rect><rect width="30" height="11" x="11" y="651.5" rx="5.5" transform="rotate(10, 26, 657)" opacity="0.68"></rect><rect width="77" height="11" x="354.5" y="493.5" rx="5.5" transform="rotate(10, 393, 499)" opacity="0.85"></rect><rect width="211" height="11" x="542.5" y="285.5" rx="5.5" transform="rotate(10, 648, 291)" opacity="0.28"></rect><rect width="140" height="11" x="285" y="427.5" rx="5.5" transform="rotate(10, 355, 433)" opacity="0.70"></rect><rect width="177" height="11" x="134.5" y="643.5" rx="5.5" transform="rotate(10, 223, 649)" opacity="0.41"></rect><rect width="25" height="11" x="422.5" y="763.5" rx="5.5" transform="rotate(10, 435, 769)" opacity="0.63"></rect><rect width="31" height="11" x="31.5" y="702.5" rx="5.5" transform="rotate(10, 47, 708)" opacity="0.70"></rect><rect width="167" height="11" x="66.5" y="640.5" rx="5.5" transform="rotate(10, 150, 646)" opacity="0.91"></rect><rect width="148" height="11" x="219" y="449.5" rx="5.5" transform="rotate(10, 293, 455)" opacity="0.91"></rect><rect width="55" height="11" x="393.5" y="132.5" rx="5.5" transform="rotate(10, 421, 138)" opacity="0.23"></rect><rect width="93" height="11" x="307.5" y="85.5" rx="5.5" transform="rotate(10, 354, 91)" opacity="0.55"></rect><rect width="123" height="11" x="243.5" y="390.5" rx="5.5" transform="rotate(10, 305, 396)" opacity="0.46"></rect><rect width="172" height="11" x="98" y="325.5" rx="5.5" transform="rotate(10, 184, 331)" opacity="0.91"></rect><rect width="36" height="11" x="213" y="770.5" rx="5.5" transform="rotate(10, 231, 776)" opacity="0.41"></rect><rect width="210" height="11" x="460" y="322.5" rx="5.5" transform="rotate(10, 565, 328)" opacity="0.64"></rect><rect width="185" height="11" x="138.5" y="466.5" rx="5.5" transform="rotate(10, 231, 472)" opacity="0.73"></rect><rect width="87" height="11" x="49.5" y="79.5" rx="5.5" transform="rotate(10, 93, 85)" opacity="0.51"></rect><rect width="131" height="11" x="-29.5" y="252.5" rx="5.5" transform="rotate(10, 36, 258)" opacity="0.82"></rect><rect width="137" height="11" x="167.5" y="395.5" rx="5.5" transform="rotate(10, 236, 401)" opacity="0.86"></rect><rect width="32" height="11" x="10" y="90.5" rx="5.5" transform="rotate(10, 26, 96)" opacity="0.21"></rect><rect width="134" height="11" x="689" y="303.5" rx="5.5" transform="rotate(10, 756, 309)" opacity="0.88"></rect><rect width="167" height="11" x="183.5" y="65.5" rx="5.5" transform="rotate(10, 267, 71)" opacity="0.17"></rect><rect width="278" height="11" x="617" y="637.5" rx="5.5" transform="rotate(10, 756, 643)" opacity="0.67"></rect><rect width="65" height="11" x="138.5" y="413.5" rx="5.5" transform="rotate(10, 171, 419)" opacity="0.46"></rect><rect width="57" height="11" x="93.5" y="24.5" rx="5.5" transform="rotate(10, 122, 30)" opacity="0.84"></rect><rect width="109" height="11" x="594.5" y="716.5" rx="5.5" transform="rotate(10, 649, 722)" opacity="0.29"></rect><rect width="144" height="11" x="134" y="137.5" rx="5.5" transform="rotate(10, 206, 143)" opacity="0.72"></rect><rect width="159" height="11" x="488.5" y="402.5" rx="5.5" transform="rotate(10, 568, 408)" opacity="0.95"></rect><rect width="92" height="11" x="710" y="441.5" rx="5.5" transform="rotate(10, 756, 447)" opacity="0.51"></rect><rect width="114" height="11" x="602" y="594.5" rx="5.5" transform="rotate(10, 659, 600)" opacity="0.48"></rect><rect width="127" height="11" x="400.5" y="714.5" rx="5.5" transform="rotate(10, 464, 720)" opacity="0.17"></rect><rect width="362" height="11" x="501" y="370.5" rx="5.5" transform="rotate(10, 682, 376)" opacity="0.08"></rect><rect width="95" height="11" x="485.5" y="471.5" rx="5.5" transform="rotate(10, 533, 477)" opacity="0.22"></rect><rect width="142" height="11" x="-49" y="471.5" rx="5.5" transform="rotate(10, 22, 477)" opacity="0.22"></rect><rect width="87" height="11" x="553.5" y="18.5" rx="5.5" transform="rotate(10, 597, 24)" opacity="0.08"></rect><rect width="43" height="11" x="461.5" y="610.5" rx="5.5" transform="rotate(10, 483, 616)" opacity="0.42"></rect><rect width="115" height="11" x="303.5" y="139.5" rx="5.5" transform="rotate(10, 361, 145)" opacity="0.35"></rect><rect width="139" height="11" x="477.5" y="15.5" rx="5.5" transform="rotate(10, 547, 21)" opacity="0.62"></rect><rect width="116" height="11" x="5" y="132.5" rx="5.5" transform="rotate(10, 63, 138)" opacity="0.90"></rect><rect width="175" height="11" x="226.5" y="740.5" rx="5.5" transform="rotate(10, 314, 746)" opacity="0.61"></rect><rect width="54" height="11" x="2" y="179.5" rx="5.5" transform="rotate(10, 29, 185)" opacity="0.54"></rect><rect width="77" height="11" x="58.5" y="485.5" rx="5.5" transform="rotate(10, 97, 491)" opacity="0.96"></rect><rect width="100" height="11" x="-23" y="29.5" rx="5.5" transform="rotate(10, 27, 35)" opacity="0.65"></rect><rect width="57" height="11" x="440.5" y="270.5" rx="5.5" transform="rotate(10, 469, 276)" opacity="0.77"></rect><rect width="118" height="11" x="288" y="361.5" rx="5.5" transform="rotate(10, 347, 367)" opacity="0.20"></rect><rect width="153" height="11" x="484.5" y="212.5" rx="5.5" transform="rotate(10, 561, 218)" opacity="0.79"></rect><rect width="138" height="11" x="55" y="743.5" rx="5.5" transform="rotate(10, 124, 749)" opacity="0.98"></rect><rect width="93" height="11" x="726.5" y="104.5" rx="5.5" transform="rotate(10, 773, 110)" opacity="0.48"></rect><rect width="111" height="11" x="376.5" y="550.5" rx="5.5" transform="rotate(10, 432, 556)" opacity="0.73"></rect><rect width="233" height="11" x="205.5" y="636.5" rx="5.5" transform="rotate(10, 322, 642)" opacity="0.16"></rect><rect width="149" height="11" x="293.5" y="707.5" rx="5.5" transform="rotate(10, 368, 713)" opacity="0.67"></rect><rect width="73" height="11" x="398.5" y="216.5" rx="5.5" transform="rotate(10, 435, 222)" opacity="0.18"></rect><rect width="108" height="11" x="146" y="30.5" rx="5.5" transform="rotate(10, 200, 36)" opacity="0.45"></rect><rect width="40" height="11" x="554" y="675.5" rx="5.5" transform="rotate(10, 574, 681)" opacity="0.35"></rect><rect width="166" height="11" x="358" y="380.5" rx="5.5" transform="rotate(10, 441, 386)" opacity="0.94"></rect><rect width="145" height="11" x="501.5" y="728.5" rx="5.5" transform="rotate(10, 574, 734)" opacity="0.17"></rect><rect width="79" height="11" x="690.5" y="749.5" rx="5.5" transform="rotate(10, 730, 755)" opacity="0.78"></rect><rect width="223" height="11" x="376.5" y="525.5" rx="5.5" transform="rotate(10, 488, 531)" opacity="0.35"></rect><rect width="154" height="11" x="358" y="637.5" rx="5.5" transform="rotate(10, 435, 643)" opacity="0.33"></rect><rect width="62" height="11" x="144" y="518.5" rx="5.5" transform="rotate(10, 175, 524)" opacity="0.85"></rect><rect width="84" height="11" x="155" y="224.5" rx="5.5" transform="rotate(10, 197, 230)" opacity="0.96"></rect><rect width="80" height="11" x="737" y="733.5" rx="5.5" transform="rotate(10, 777, 739)" opacity="0.20"></rect><rect width="94" height="11" x="476" y="681.5" rx="5.5" transform="rotate(10, 523, 687)" opacity="0.25"></rect><rect width="60" height="11" x="336" y="571.5" rx="5.5" transform="rotate(10, 366, 577)" opacity="0.48"></rect><rect width="32" height="11" x="325" y="484.5" rx="5.5" transform="rotate(10, 341, 490)" opacity="0.30"></rect><rect width="170" height="11" x="234" y="275.5" rx="5.5" transform="rotate(10, 319, 281)" opacity="0.29"></rect><rect width="95" height="11" x="559.5" y="180.5" rx="5.5" transform="rotate(10, 607, 186)" opacity="0.43"></rect><rect width="111" height="11" x="11.5" y="628.5" rx="5.5" transform="rotate(10, 67, 634)" opacity="0.74"></rect><rect width="63" height="11" x="22.5" y="429.5" rx="5.5" transform="rotate(10, 54, 435)" opacity="0.52"></rect><rect width="38" height="11" x="471" y="28.5" rx="5.5" transform="rotate(10, 490, 34)" opacity="0.46"></rect><rect width="51" height="11" x="656.5" y="201.5" rx="5.5" transform="rotate(10, 682, 207)" opacity="0.31"></rect><rect width="84" height="11" x="342" y="267.5" rx="5.5" transform="rotate(10, 384, 273)" opacity="0.49"></rect><rect width="155" height="11" x="40.5" y="418.5" rx="5.5" transform="rotate(10, 118, 424)" opacity="0.11"></rect><rect width="49" height="11" x="240.5" y="201.5" rx="5.5" transform="rotate(10, 265, 207)" opacity="0.68"></rect><rect width="169" height="11" x="597.5" y="664.5" rx="5.5" transform="rotate(10, 682, 670)" opacity="0.60"></rect><rect width="75" height="11" x="442.5" y="163.5" rx="5.5" transform="rotate(10, 480, 169)" opacity="0.92"></rect><rect width="181" height="11" x="616.5" y="116.5" rx="5.5" transform="rotate(10, 707, 122)" opacity="0.53"></rect><rect width="191" height="11" x="390.5" y="95.5" rx="5.5" transform="rotate(10, 486, 101)" opacity="0.61"></rect><rect width="49" height="11" x="735.5" y="195.5" rx="5.5" transform="rotate(10, 760, 201)" opacity="0.90"></rect><rect width="94" height="11" x="514" y="70.5" rx="5.5" transform="rotate(10, 561, 76)" opacity="0.30"></rect><rect width="143" height="11" x="528.5" y="246.5" rx="5.5" transform="rotate(10, 600, 252)" opacity="0.44"></rect><rect width="82" height="11" x="345" y="202.5" rx="5.5" transform="rotate(10, 386, 208)" opacity="0.86"></rect><rect width="66" height="11" x="95" y="253.5" rx="5.5" transform="rotate(10, 128, 259)" opacity="0.56"></rect><rect width="160" height="11" x="198" y="345.5" rx="5.5" transform="rotate(10, 278, 351)" opacity="0.28"></rect><rect width="45" height="11" x="552.5" y="543.5" rx="5.5" transform="rotate(10, 575, 549)" opacity="0.28"></rect><rect width="138" height="11" x="46" y="177.5" rx="5.5" transform="rotate(10, 115, 183)" opacity="0.46"></rect><rect width="124" height="11" x="21" y="306.5" rx="5.5" transform="rotate(10, 83, 312)" opacity="0.08"></rect><rect width="25" height="11" x="63.5" y="545.5" rx="5.5" transform="rotate(10, 76, 551)" opacity="0.33"></rect><rect width="93" height="11" x="205.5" y="581.5" rx="5.5" transform="rotate(10, 252, 587)" opacity="0.15"></rect><rect width="185" height="11" x="542.5" y="462.5" rx="5.5" transform="rotate(10, 635, 468)" opacity="0.49"></rect><rect width="159" height="11" x="593.5" y="529.5" rx="5.5" transform="rotate(10, 673, 535)" opacity="0.65"></rect><rect width="75" height="11" x="637.5" y="764.5" rx="5.5" transform="rotate(10, 675, 770)" opacity="0.15"></rect><rect width="126" height="11" x="467" y="256.5" rx="5.5" transform="rotate(10, 530, 262)" opacity="0.15"></rect><rect width="107" height="11" x="346.5" y="672.5" rx="5.5" transform="rotate(10, 400, 678)" opacity="0.51"></rect><rect width="83" height="11" x="603.5" y="26.5" rx="5.5" transform="rotate(10, 645, 32)" opacity="0.52"></rect><rect width="110" height="11" x="231" y="525.5" rx="5.5" transform="rotate(10, 286, 531)" opacity="0.33"></rect><rect width="148" height="11" x="302" y="771.5" rx="5.5" transform="rotate(10, 376, 777)" opacity="0.66"></rect><rect width="160" height="11" x="315" y="322.5" rx="5.5" transform="rotate(10, 395, 328)" opacity="0.90"></rect><rect width="178" height="11" x="166" y="286.5" rx="5.5" transform="rotate(10, 255, 292)" opacity="0.73"></rect><rect width="90" height="11" x="184" y="710.5" rx="5.5" transform="rotate(10, 229, 716)" opacity="0.75"></rect><rect width="133" height="11" x="450.5" y="762.5" rx="5.5" transform="rotate(10, 517, 768)" opacity="0.63"></rect><rect width="39" height="11" x="584.5" y="770.5" rx="5.5" transform="rotate(10, 604, 776)" opacity="0.66"></rect><rect width="107" height="11" x="39.5" y="366.5" rx="5.5" transform="rotate(10, 93, 372)" opacity="0.86"></rect><rect width="163" height="11" x="-57.5" y="549.5" rx="5.5" transform="rotate(10, 24, 555)" opacity="0.30"></rect><rect width="34" height="11" x="376" y="391.5" rx="5.5" transform="rotate(10, 393, 397)" opacity="0.97"></rect><rect width="164" height="11" x="663" y="28.5" rx="5.5" transform="rotate(10, 745, 34)" opacity="0.23"></rect><rect width="160" height="11" x="249" y="22.5" rx="5.5" transform="rotate(10, 329, 28)" opacity="0.12"></rect><rect width="62" height="11" x="122" y="97.5" rx="5.5" transform="rotate(10, 153, 103)" opacity="0.08"></rect><rect width="102" height="11" x="566" y="682.5" rx="5.5" transform="rotate(10, 617, 688)" opacity="0.85"></rect><rect width="275" height="11" x="612.5" y="539.5" rx="5.5" transform="rotate(10, 750, 545)" opacity="0.15"></rect><rect width="71" height="11" x="83.5" y="577.5" rx="5.5" transform="rotate(10, 119, 583)" opacity="0.20"></rect><rect width="124" height="11" x="599" y="76.5" rx="5.5" transform="rotate(10, 661, 82)" opacity="0.78"></rect><rect width="45" height="11" x="1.5" y="360.5" rx="5.5" transform="rotate(10, 24, 366)" opacity="0.15"></rect><rect width="102" height="11" x="-16" y="761.5" rx="5.5" transform="rotate(10, 35, 767)" opacity="0.93"></rect><rect width="31" height="11" x="509.5" y="181.5" rx="5.5" transform="rotate(10, 525, 187)" opacity="0.17"></rect><rect width="70" height="11" x="507" y="605.5" rx="5.5" transform="rotate(10, 542, 611)" opacity="0.90"></rect><rect width="160" height="11" x="256" y="203.5" rx="5.5" transform="rotate(10, 336, 209)" opacity="0.25"></rect><rect width="125" height="11" x="353.5" y="36.5" rx="5.5" transform="rotate(10, 416, 42)" opacity="0.52"></rect><rect width="230" height="11" x="377" y="354.5" rx="5.5" transform="rotate(10, 492, 360)" opacity="0.11"></rect><rect width="52" height="11" x="270" y="142.5" rx="5.5" transform="rotate(10, 296, 148)" opacity="0.65"></rect></g></svg>
